<svg xmlns="http://www.w3.org/2000/svg" viewBox="0 0 100 100" fill="none">
  <!-- Robot Head -->
  <rect x="25" y="15" width="50" height="40" rx="8" fill="#3B82F6" stroke="#1E40AF" stroke-width="2"/>
  <!-- Eyes -->
  <circle cx="38" cy="32" r="6" fill="#FFFFFF"/>
  <circle cx="62" cy="32" r="6" fill="#FFFFFF"/>
  <circle cx="38" cy="32" r="3" fill="#1E40AF"/>
  <circle cx="62" cy="32" r="3" fill="#1E40AF"/>
  <!-- Antenna -->
  <line x1="50" y1="15" x2="50" y2="5" stroke="#1E40AF" stroke-width="3" stroke-linecap="round"/>
  <circle cx="50" cy="3" r="4" fill="#EF4444"/>
  <!-- Mouth/Speaker -->
  <rect x="35" y="42" width="30" height="6" rx="2" fill="#1E40AF"/>
  <!-- Body -->
  <rect x="30" y="58" width="40" height="30" rx="5" fill="#3B82F6" stroke="#1E40AF" stroke-width="2"/>
  <!-- Chest Panel -->
  <rect x="38" y="63" width="24" height="12" rx="2" fill="#1E40AF"/>
  <circle cx="45" cy="69" r="2" fill="#10B981"/>
  <circle cx="55" cy="69" r="2" fill="#EF4444"/>
  <!-- Arms -->
  <rect x="15" y="60" width="12" height="25" rx="4" fill="#3B82F6" stroke="#1E40AF" stroke-width="2"/>
  <rect x="73" y="60" width="12" height="25" rx="4" fill="#3B82F6" stroke="#1E40AF" stroke-width="2"/>
  <!-- Hands -->
  <circle cx="21" cy="88" r="5" fill="#3B82F6" stroke="#1E40AF" stroke-width="2"/>
  <circle cx="79" cy="88" r="5" fill="#3B82F6" stroke="#1E40AF" stroke-width="2"/>
</svg>
